<svg id="visual" viewBox="0 0 900 600" width="900" height="600" xmlns="http://www.w3.org/2000/svg" xmlns:xlink="http://www.w3.org/1999/xlink" version="1.1"><rect x="0" y="0" width="900" height="600" fill="#15161a"></rect><path d="M0 176L21.5 179.5C43 183 86 190 128.8 201.8C171.7 213.7 214.3 230.3 257.2 225.7C300 221 343 195 385.8 187.7C428.7 180.3 471.3 191.7 514.2 194C557 196.3 600 189.7 642.8 196.2C685.7 202.7 728.3 222.3 771.2 221.3C814 220.3 857 198.7 878.5 187.8L900 177L900 0L878.5 0C857 0 814 0 771.2 0C728.3 0 685.7 0 642.8 0C600 0 557 0 514.2 0C471.3 0 428.7 0 385.8 0C343 0 300 0 257.2 0C214.3 0 171.7 0 128.8 0C86 0 43 0 21.5 0L0 0Z" fill="#8b80ff"></path><path d="M0 175L21.5 168.7C43 162.3 86 149.7 128.8 150.2C171.7 150.7 214.3 164.3 257.2 174.5C300 184.7 343 191.3 385.8 187.5C428.7 183.7 471.3 169.3 514.2 159.8C557 150.3 600 145.7 642.8 151.8C685.7 158 728.3 175 771.2 171.2C814 167.3 857 142.7 878.5 130.3L900 118L900 0L878.5 0C857 0 814 0 771.2 0C728.3 0 685.7 0 642.8 0C600 0 557 0 514.2 0C471.3 0 428.7 0 385.8 0C343 0 300 0 257.2 0C214.3 0 171.7 0 128.8 0C86 0 43 0 21.5 0L0 0Z" fill="#6e63ff"></path><path d="M0 159L21.5 148.5C43 138 86 117 128.8 116.2C171.7 115.3 214.3 134.7 257.2 137.7C300 140.7 343 127.3 385.8 121C428.7 114.7 471.3 115.3 514.2 119C557 122.7 600 129.3 642.8 124.8C685.7 120.3 728.3 104.7 771.2 100.7C814 96.7 857 104.3 878.5 108.2L900 112L900 0L878.5 0C857 0 814 0 771.2 0C728.3 0 685.7 0 642.8 0C600 0 557 0 514.2 0C471.3 0 428.7 0 385.8 0C343 0 300 0 257.2 0C214.3 0 171.7 0 128.8 0C86 0 43 0 21.5 0L0 0Z" fill="#4b45fe"></path><path d="M0 117L21.5 107.2C43 97.3 86 77.7 128.8 72.2C171.7 66.7 214.3 75.3 257.2 83.3C300 91.3 343 98.7 385.8 100.3C428.7 102 471.3 98 514.2 95C557 92 600 90 642.8 88.5C685.7 87 728.3 86 771.2 90.8C814 95.7 857 106.3 878.5 111.7L900 117L900 0L878.5 0C857 0 814 0 771.2 0C728.3 0 685.7 0 642.8 0C600 0 557 0 514.2 0C471.3 0 428.7 0 385.8 0C343 0 300 0 257.2 0C214.3 0 171.7 0 128.8 0C86 0 43 0 21.5 0L0 0Z" fill="#4038df"></path><path d="M0 54L21.5 57C43 60 86 66 128.8 61.8C171.7 57.7 214.3 43.3 257.2 37.5C300 31.7 343 34.3 385.8 36C428.7 37.7 471.3 38.3 514.2 40.8C557 43.3 600 47.7 642.8 47.3C685.7 47 728.3 42 771.2 37.3C814 32.7 857 28.3 878.5 26.2L900 24L900 0L878.5 0C857 0 814 0 771.2 0C728.3 0 685.7 0 642.8 0C600 0 557 0 514.2 0C471.3 0 428.7 0 385.8 0C343 0 300 0 257.2 0C214.3 0 171.7 0 128.8 0C86 0 43 0 21.5 0L0 0Z" fill="#352cc0"></path></svg>